<svg xmlns="http://www.w3.org/2000/svg" width="390" height="844" viewBox="0 0 390 844">
  <rect width="390" height="844" fill="#F5F7FA"/>
  <rect x="0" y="0" width="390" height="72" fill="#1E2A38"/>
  <text x="20" y="44" font-family="Poppins" font-size="18" fill="#FFFFFF">Covoiturages</text>
  <rect x="20" y="90" width="350" height="140" rx="12" fill="#FFFFFF" stroke="#E5E7EB"/>
  <text x="36" y="120" font-family="Poppins" font-size="16" fill="#1E2A38">Filtres rapides</text>
  <rect x="36" y="134" width="140" height="32" rx="6" fill="#FFFFFF" stroke="#D1D5DB"/>
  <rect x="190" y="134" width="140" height="32" rx="6" fill="#FFFFFF" stroke="#D1D5DB"/>
  <rect x="36" y="174" width="110" height="32" rx="6" fill="#FFFFFF" stroke="#D1D5DB"/>
  <rect x="160" y="174" width="80" height="32" rx="6" fill="#6AD39C"/>
  <text x="175" y="195" font-family="Inter" font-size="12" fill="#1E2A38">Go</text>
  <rect x="20" y="250" width="350" height="48" rx="10" fill="#FFFFFF" stroke="#E5E7EB"/>
  <text x="36" y="280" font-family="Inter" font-size="13" fill="#1E2A38">Tri : Date ▼   Prix ▼</text>
  <rect x="20" y="310" width="350" height="140" rx="12" fill="#FFFFFF" stroke="#E5E7EB"/>
  <rect x="20" y="460" width="350" height="140" rx="12" fill="#FFFFFF" stroke="#E5E7EB"/>
  <rect x="20" y="610" width="350" height="140" rx="12" fill="#FFFFFF" stroke="#E5E7EB"/>
  <rect x="150" y="770" width="90" height="32" rx="8" fill="#1A9A5F"/>
  <text x="168" y="791" font-family="Inter" font-size="12" fill="#FFFFFF">Pagination</text>
</svg>
