<svg xmlns="http://www.w3.org/2000/svg" width="390" height="844" viewBox="0 0 390 844">
  <rect width="390" height="844" fill="#F5F7FA"/>
  <rect x="0" y="0" width="390" height="72" fill="#1E2A38"/>
  <text x="20" y="44" font-family="Poppins" font-size="18" fill="#FFFFFF">EcoRide</text>
  <rect x="20" y="90" width="350" height="180" rx="12" fill="#1A9A5F" opacity="0.9"/>
  <text x="36" y="128" font-family="Poppins" font-size="20" fill="#FFFFFF">Rechercher</text>
  <rect x="36" y="140" width="140" height="34" rx="6" fill="#FFFFFF"/>
  <rect x="190" y="140" width="140" height="34" rx="6" fill="#FFFFFF"/>
  <rect x="36" y="180" width="140" height="34" rx="6" fill="#FFFFFF"/>
  <rect x="190" y="180" width="80" height="34" rx="6" fill="#6AD39C"/>
  <text x="205" y="202" font-family="Inter" font-size="12" fill="#1E2A38">Go</text>
  <text x="20" y="300" font-family="Poppins" font-size="18" fill="#1E2A38">Trajets à venir</text>
  <rect x="20" y="320" width="350" height="140" rx="12" fill="#FFFFFF" stroke="#E5E7EB"/>
  <text x="40" y="350" font-family="Poppins" font-size="16" fill="#1E2A38">Paris → Lyon</text>
  <text x="40" y="374" font-family="Inter" font-size="12" fill="#4B5563">12/12 · 08:00 · 35🪙 · 2 places</text>
  <rect x="240" y="420" width="110" height="32" rx="8" fill="#1A9A5F"/>
  <text x="262" y="441" font-family="Inter" font-size="12" fill="#FFFFFF">Participer</text>
  <rect x="20" y="480" width="350" height="140" rx="12" fill="#FFFFFF" stroke="#E5E7EB"/>
</svg>
