<svg xmlns="http://www.w3.org/2000/svg" width="1440" height="900" viewBox="0 0 1440 900">
  <rect width="1440" height="900" fill="#F5F7FA"/>
  <rect x="0" y="0" width="1440" height="80" fill="#1E2A38"/>
  <text x="40" y="50" font-family="Poppins" font-size="26" fill="#FFFFFF">EcoRide - Liste covoiturages</text>
  <rect x="80" y="110" width="1280" height="120" rx="12" fill="#FFFFFF" stroke="#E5E7EB"/>
  <text x="110" y="150" font-family="Poppins" font-size="18" fill="#1E2A38">Filtres</text>
  <rect x="110" y="160" width="220" height="36" rx="6" fill="#FFFFFF" stroke="#D1D5DB"/>
  <rect x="350" y="160" width="220" height="36" rx="6" fill="#FFFFFF" stroke="#D1D5DB"/>
  <rect x="590" y="160" width="140" height="36" rx="6" fill="#FFFFFF" stroke="#D1D5DB"/>
  <rect x="750" y="160" width="120" height="36" rx="6" fill="#6AD39C"/>
  <text x="780" y="185" font-family="Inter" font-size="14" fill="#1E2A38">Rechercher</text>
  <rect x="910" y="160" width="160" height="36" rx="6" fill="#FFFFFF" stroke="#D1D5DB"/>
  <rect x="1090" y="160" width="120" height="36" rx="6" fill="#FFFFFF" stroke="#D1D5DB"/>
  <rect x="80" y="250" width="1280" height="600" rx="14" fill="#FFFFFF" stroke="#E5E7EB"/>
  <text x="110" y="285" font-family="Poppins" font-size="20" fill="#1E2A38">Résultats (tri date/prix, pagination)</text>
  <rect x="110" y="310" width="360" height="160" rx="12" fill="#FFFFFF" stroke="#D1D5DB"/>
  <rect x="500" y="310" width="360" height="160" rx="12" fill="#FFFFFF" stroke="#D1D5DB"/>
  <rect x="890" y="310" width="360" height="160" rx="12" fill="#FFFFFF" stroke="#D1D5DB"/>
  <rect x="110" y="490" width="360" height="160" rx="12" fill="#FFFFFF" stroke="#D1D5DB"/>
  <rect x="500" y="490" width="360" height="160" rx="12" fill="#FFFFFF" stroke="#D1D5DB"/>
  <rect x="890" y="490" width="360" height="160" rx="12" fill="#FFFFFF" stroke="#D1D5DB"/>
  <rect x="640" y="680" width="160" height="36" rx="8" fill="#1A9A5F"/>
  <text x="675" y="704" font-family="Inter" font-size="14" fill="#FFFFFF">Pagination</text>
</svg>
