<svg xmlns="http://www.w3.org/2000/svg" width="1440" height="900" viewBox="0 0 1440 900">
  <rect width="1440" height="900" fill="#F5F7FA"/>
  <rect x="0" y="0" width="1440" height="80" fill="#1E2A38"/>
  <text x="40" y="50" font-family="Poppins" font-size="26" fill="#FFFFFF">EcoRide - Accueil</text>
  <rect x="80" y="120" width="1280" height="200" rx="12" fill="#1A9A5F" opacity="0.9"/>
  <text x="120" y="180" font-family="Poppins" font-size="28" fill="#FFFFFF">Cherchez un trajet</text>
  <rect x="120" y="200" width="260" height="40" rx="6" fill="#FFFFFF"/>
  <rect x="400" y="200" width="260" height="40" rx="6" fill="#FFFFFF"/>
  <rect x="680" y="200" width="180" height="40" rx="6" fill="#FFFFFF"/>
  <rect x="880" y="200" width="120" height="40" rx="6" fill="#6AD39C"/>
  <text x="896" y="226" font-family="Inter" font-size="16" fill="#1E2A38">Rechercher</text>
  <rect x="80" y="360" width="1280" height="460" rx="14" fill="#FFFFFF" stroke="#E5E7EB"/>
  <text x="110" y="400" font-family="Poppins" font-size="22" fill="#1E2A38">Trajets à venir</text>
  <rect x="110" y="430" width="360" height="180" rx="12" fill="#FFFFFF" stroke="#D1D5DB"/>
  <rect x="500" y="430" width="360" height="180" rx="12" fill="#FFFFFF" stroke="#D1D5DB"/>
  <rect x="890" y="430" width="360" height="180" rx="12" fill="#FFFFFF" stroke="#D1D5DB"/>
  <rect x="110" y="630" width="360" height="180" rx="12" fill="#FFFFFF" stroke="#D1D5DB"/>
  <text x="140" y="470" font-family="Poppins" font-size="18" fill="#1E2A38">Paris → Lyon</text>
  <text x="140" y="495" font-family="Inter" font-size="14" fill="#4B5563">12/12 · 08:00 · 35🪙</text>
  <rect x="315" y="650" width="140" height="36" rx="8" fill="#1A9A5F"/>
  <text x="345" y="673" font-family="Inter" font-size="14" fill="#FFFFFF">Participer</text>
  <rect x="80" y="840" width="200" height="20" fill="#1E2A38"/>
</svg>
