<?xml version="1.0" encoding="UTF-8"?>
<svg xmlns="http://www.w3.org/2000/svg" viewBox="0 0 800 450" role="img" aria-labelledby="title desc">
  <title id="title">Voiture EcoRide respirant la nature</title>
  <desc id="desc">Illustration d'une voiture verte qui diffuse des feuilles et des bulles d'air pur autour d'elle</desc>
  <defs>
    <linearGradient id="sky" x1="0%" y1="0%" x2="0%" y2="100%">
      <stop offset="0%" stop-color="#f3fbff" />
      <stop offset="100%" stop-color="#bfe6f0" />
    </linearGradient>
    <linearGradient id="ground" x1="0%" y1="0%" x2="100%" y2="0%">
      <stop offset="0%" stop-color="#3bb76c" />
      <stop offset="100%" stop-color="#1f7a45" />
    </linearGradient>
    <linearGradient id="carBody" x1="0%" y1="0%" x2="120%" y2="100%">
      <stop offset="0%" stop-color="#4bd27d" />
      <stop offset="100%" stop-color="#1c8b4d" />
    </linearGradient>
    <radialGradient id="glow" cx="50%" cy="60%" r="60%">
      <stop offset="0%" stop-color="#9be5b8" stop-opacity="0.9" />
      <stop offset="100%" stop-color="#9be5b8" stop-opacity="0" />
    </radialGradient>
  </defs>
  <rect width="800" height="450" fill="url(#sky)" />
  <rect y="320" width="800" height="130" fill="url(#ground)" />
  <circle cx="600" cy="120" r="60" fill="#fdf5c8" opacity="0.7" />
  <ellipse cx="400" cy="320" rx="260" ry="120" fill="url(#glow)" />
  <g transform="translate(160 240)">
    <path d="M50 120l42-52c18-22 46-34 74-36l220-16c28-2 56 8 76 24l42 38-40 60z" fill="#f6fffb" opacity="0.82" />
    <path d="M96 120L156 42c14-18 36-30 60-32l170-10c24-2 48 6 68 20l50 34-38 58z" fill="url(#carBody)" />
    <rect x="120" y="44" width="118" height="48" rx="18" fill="#ecfbf2" />
    <rect x="250" y="36" width="112" height="58" rx="18" fill="#ecfbf2" />
    <circle cx="180" cy="128" r="36" fill="#102f3a" />
    <circle cx="180" cy="128" r="26" fill="#e4f4fc" />
    <circle cx="380" cy="128" r="36" fill="#102f3a" />
    <circle cx="380" cy="128" r="26" fill="#e4f4fc" />
    <path d="M126 92h138" fill="none" stroke="#115635" stroke-width="8" stroke-linecap="round" />
    <path d="M270 94h78" fill="none" stroke="#115635" stroke-width="8" stroke-linecap="round" />
  </g>
  <g transform="translate(420 120)" fill="#86e6a6" opacity="0.85">
    <path d="M30 120c22-26 40-38 66-42-6 24-16 42-30 56-10 10-22 16-36 16-4-12-4-22 0-30z" />
    <path d="M80 40c26-18 54-26 88-24-14 26-32 44-56 54-12 4-26 6-40 4-4-12 0-24 8-34z" />
    <path d="M160 20c24 2 44 10 58 24-20 20-44 30-72 28 4-18 8-34 14-52z" />
  </g>
  <g transform="translate(390 90)" fill="#c6f7d7" opacity="0.75">
    <circle cx="20" cy="60" r="12" />
    <circle cx="58" cy="40" r="16" />
    <circle cx="90" cy="70" r="14" />
    <circle cx="118" cy="46" r="10" />
  </g>
  <g transform="translate(510 70)" fill="#9be5b8" opacity="0.85">
    <path d="M0 48c16-16 34-26 54-30-6 22-16 38-34 48-8 4-18 6-28 4-2-14 0-22 8-30z" />
    <path d="M60 26c18-14 40-22 66-22-12 22-28 38-48 48-10 4-22 6-34 4-2-10 4-20 16-30z" />
  </g>
  <g transform="translate(120 180)" fill="#63c685" opacity="0.4">
    <circle cx="40" cy="20" r="24" />
    <circle cx="80" cy="40" r="18" />
    <circle cx="60" cy="80" r="16" />
  </g>
  <g transform="translate(620 220)" fill="#63c685" opacity="0.35">
    <circle cx="24" cy="24" r="20" />
    <circle cx="52" cy="18" r="16" />
    <circle cx="40" cy="48" r="18" />
  </g>
</svg>
