<?xml version="1.0" encoding="UTF-8"?>
<svg xmlns="http://www.w3.org/2000/svg" viewBox="0 0 160 180" role="img" aria-labelledby="title desc">
  <title id="title">EcoRide logo</title>
  <desc id="desc">Vector recreation of the EcoRide green "R" leaf emblem</desc>
  <defs>
    <linearGradient id="bodyGradient" x1="0%" y1="0%" x2="0%" y2="100%">
      <stop offset="0%" stop-color="#a7d96d" />
      <stop offset="100%" stop-color="#3fa93d" />
    </linearGradient>
    <linearGradient id="innerGlow" x1="40%" y1="20%" x2="70%" y2="80%">
      <stop offset="0%" stop-color="#f7fff4" stop-opacity="0.6" />
      <stop offset="100%" stop-color="#f7fff4" stop-opacity="0" />
    </linearGradient>
    <linearGradient id="leafGradient" x1="20%" y1="0%" x2="80%" y2="100%">
      <stop offset="0%" stop-color="#7fd36f" />
      <stop offset="100%" stop-color="#1e7f42" />
    </linearGradient>
  </defs>
  <g fill="none" stroke-linejoin="round">
    <path d="M44 24c-11 0-20 9-20 20v104c0 11 9 20 20 20h26c11 0 20-9 20-20v-30h8c31 0 56-23 56-53S129 22 98 22H44z" fill="url(#bodyGradient)" stroke="#1d6b31" stroke-width="6" />
    <path d="M70 46h24c20 0 36 15 36 35s-16 35-36 35H70V46z" fill="url(#innerGlow)" />
    <path d="M70 114c18 0 34 9 43 22l14 22c3.4 5.4-2 11.9-7.9 10l-22-7.2-20.9 24c-4.6 5.2-13 2.6-14.8-4.2l-8.2-32C49.5 132 58 114 70 114z" fill="url(#leafGradient)" stroke="#1d6b31" stroke-width="5" stroke-linecap="round" />
    <path d="M82 134c8-6 17-8 26-6" stroke="#f2fff2" stroke-width="4" stroke-linecap="round" />
  </g>
</svg>
