<?xml version="1.0" encoding="UTF-8"?>
<svg xmlns="http://www.w3.org/2000/svg" viewBox="0 0 800 450" role="img" aria-labelledby="title desc">
  <title id="title">Main tenant l'application EcoRide</title>
  <desc id="desc">Illustration stylisée d'une main tenant un smartphone affichant l'application EcoRide</desc>
  <defs>
    <linearGradient id="bg" x1="0%" y1="0%" x2="100%" y2="100%">
      <stop offset="0%" stop-color="#f2faf6" />
      <stop offset="100%" stop-color="#cbe9dd" />
    </linearGradient>
    <linearGradient id="phone" x1="0%" y1="0%" x2="0%" y2="100%">
      <stop offset="0%" stop-color="#1d3d55" />
      <stop offset="100%" stop-color="#14293b" />
    </linearGradient>
  </defs>
  <rect width="800" height="450" fill="url(#bg)" />
  <g opacity="0.12" fill="#34a853">
    <circle cx="640" cy="70" r="90" />
    <circle cx="180" cy="120" r="80" />
    <circle cx="220" cy="340" r="120" />
    <circle cx="680" cy="320" r="100" />
  </g>
  <path d="M360 420c-60-18-96-72-96-134 0-150 106-214 206-214 70 0 132 36 162 98" fill="none" stroke="#0f7641" stroke-width="10" stroke-linecap="round" stroke-dasharray="30 26" />
  <g transform="translate(220 60)">
    <rect x="150" y="20" width="220" height="360" rx="36" fill="url(#phone)" stroke="#0b2132" stroke-width="6" />
    <rect x="170" y="60" width="180" height="280" rx="22" fill="#ffffff" />
    <rect x="210" y="340" width="100" height="12" rx="6" fill="#102436" opacity="0.7" />
    <circle cx="260" cy="40" r="8" fill="#0f7641" />
    <g transform="translate(200 80)" font-family="'Poppins', 'Segoe UI', sans-serif">
      <text x="0" y="26" font-size="22" fill="#0f7641" font-weight="600">EcoRide</text>
      <rect x="0" y="44" width="140" height="60" rx="16" fill="#e8f6ef" />
      <path d="M18 62c20-16 58-28 80-22" fill="none" stroke="#0f7641" stroke-width="6" stroke-linecap="round" />
      <circle cx="20" cy="62" r="6" fill="#0f7641" />
      <circle cx="98" cy="44" r="6" fill="#0f7641" />
      <text x="0" y="130" font-size="16" fill="#1f3b53">Départ : Paris</text>
      <text x="0" y="154" font-size="16" fill="#1f3b53">Arrivée : Lyon</text>
      <rect x="0" y="176" width="140" height="44" rx="12" fill="#34a853" />
      <text x="20" y="205" font-size="16" fill="#ffffff" font-weight="600">Réserver</text>
    </g>
    <g transform="translate(120 180)">
      <path d="M80 120c20 30 64 50 110 54 60 4 102-38 102-38l-24-36s-16 14-42 22c-32 10-70 4-94-18l-52 16z" fill="#f3c7a7" />
      <path d="M70 100c-12 6-18 22-12 36 10 22 32 34 58 38l-12-36c-6-16-20-28-34-38z" fill="#e8a476" />
      <path d="M74 92c10 8 34 18 58 18 12 0 34-6 50-18-18-28-30-58-34-92-22-2-48 12-56 34-4 12 0 44-18 58z" fill="#f8d5bb" />
      <path d="M158 28c-10 16-40 30-66 30-10-8-14-34-8-50 12-32 42-44 76-26 6 14 2 32-2 46z" fill="#102436" opacity="0.9" />
    </g>
  </g>
  <g fill="#ffffff" opacity="0.6">
    <circle cx="620" cy="200" r="28" />
    <circle cx="660" cy="220" r="18" />
    <circle cx="640" cy="250" r="14" />
  </g>
</svg>
